<svg width="52" height="52" viewBox="0 0 52 52" fill="none" xmlns="http://www.w3.org/2000/svg">
<circle cx="26" cy="26" r="26" fill="#AEAEAE"/>
<path d="M27.5 14C27.5 13.1716 26.8284 12.5 26 12.5C25.1716 12.5 24.5 13.1716 24.5 14H27.5ZM24.9393 40.0607C25.5251 40.6464 26.4749 40.6464 27.0607 40.0607L36.6066 30.5147C37.1924 29.9289 37.1924 28.9792 36.6066 28.3934C36.0208 27.8076 35.0711 27.8076 34.4853 28.3934L26 36.8787L17.5147 28.3934C16.9289 27.8076 15.9792 27.8076 15.3934 28.3934C14.8076 28.9792 14.8076 29.9289 15.3934 30.5147L24.9393 40.0607ZM24.5 14V39H27.5V14H24.5Z" fill="black"/>
</svg>
